<?xml version="1.0" encoding="utf-8"?>
<!-- Generator: Adobe Illustrator 16.0.4, SVG Export Plug-In . SVG Version: 6.00 Build 0)  -->
<!DOCTYPE svg PUBLIC "-//W3C//DTD SVG 1.1//EN" "http://www.w3.org/Graphics/SVG/1.1/DTD/svg11.dtd">
<svg version="1.1" id="Layer_1" xmlns="http://www.w3.org/2000/svg" xmlns:xlink="http://www.w3.org/1999/xlink" x="0px" y="0px"
	 width="204px" height="164.5px" viewBox="0 0 204 164.5" enable-background="new 0 0 204 164.5" xml:space="preserve">
<g>
	<polygon fill="#FFFFFF" stroke="#010101" stroke-width="0.25" points="185.134,47.349 177.359,28.454 170.973,42.71 
		170.973,41.481 177.73,24.366 185.872,43.909 	"/>
	<path fill="#FFFFFF" stroke="#010101" stroke-width="0.25" d="M137.741,64.944l6.827-1.215c-1.33-0.487-2.836-0.812-4.37-0.922
		c0.006-0.006,0.014-0.006,0.02-0.006c-0.018,0-0.022,0-0.032,0.006c-3.58-0.252-7.314,0.664-9.404,3.447
		c-0.088,3.428-0.758,6.822-0.496,10.279l6.854-1.221c-0.258-3.426,0.205-6.793,0.584-10.249
		C137.725,65.022,137.729,64.983,137.741,64.944z"/>
	<path fill="#FFFFFF" stroke="#010101" stroke-width="0.25" d="M118.17,64.626l6.826-1.215c-1.329-0.49-2.837-0.812-4.367-0.924
		c0.006-0.002,0.01-0.002,0.016-0.009c-0.013,0.003-0.021,0.006-0.035,0.009c-3.575-0.255-7.312,0.667-9.4,3.445
		c-0.092,3.43-0.756,6.824-0.495,10.283l6.854-1.223c-0.264-3.425,0.203-6.795,0.582-10.25
		C118.148,64.704,118.162,64.664,118.17,64.626z"/>
	<path fill="#FFFFFF" stroke="#010101" stroke-width="0.25" d="M98.856,64.771l6.832-1.218c-1.332-0.487-2.836-0.81-4.37-0.92
		c0.007-0.004,0.011-0.004,0.015-0.008c-0.012,0.004-0.021,0.004-0.031,0.008c-3.576-0.254-7.314,0.666-9.408,3.447
		c-0.082,3.426-0.751,6.823-0.488,10.277l6.852-1.217c-0.262-3.426,0.203-6.795,0.58-10.252
		C98.841,64.847,98.852,64.811,98.856,64.771z"/>
	<path fill="#FFFFFF" stroke="#010101" stroke-width="0.25" d="M78.859,64.771l6.828-1.218c-1.328-0.487-2.834-0.81-4.367-0.92
		c0.005-0.004,0.007-0.004,0.013-0.008c-0.008,0.004-0.021,0.004-0.031,0.008c-3.578-0.254-7.312,0.666-9.406,3.447
		c-0.084,3.426-0.755,6.823-0.492,10.277l6.854-1.217c-0.262-3.426,0.201-6.795,0.58-10.252
		C78.839,64.847,78.852,64.811,78.859,64.771z"/>
	<path fill="#FFFFFF" stroke="#010101" stroke-width="0.25" d="M59.263,65.078l6.831-1.218c-1.334-0.488-2.839-0.809-4.371-0.919
		c0.004-0.005,0.01-0.009,0.015-0.009c-0.011,0-0.021,0.004-0.033,0.009c-3.578-0.255-7.313,0.665-9.403,3.446
		c-0.087,3.424-0.757,6.822-0.494,10.277l6.854-1.218c-0.263-3.429,0.201-6.798,0.584-10.25
		C59.245,65.156,59.255,65.117,59.263,65.078z"/>
	<path fill="#FFFFFF" stroke="#010101" stroke-width="0.25" d="M39.693,64.755l6.827-1.211c-1.332-0.492-2.834-0.815-4.37-0.928
		c0.007,0,0.011,0,0.013-0.004c-0.008,0.004-0.02,0.004-0.029,0.004c-3.578-0.248-7.313,0.67-9.405,3.451
		c-0.086,3.425-0.756,6.824-0.492,10.279l6.851-1.223c-0.26-3.421,0.205-6.794,0.582-10.246
		C39.673,64.835,39.683,64.798,39.693,64.755z"/>
	<path fill="#FFFFFF" stroke="#010101" stroke-width="0.25" d="M20.382,64.901l6.828-1.219c-1.332-0.482-2.834-0.809-4.368-0.918
		c0.005-0.006,0.011-0.006,0.014-0.006c-0.01,0-0.022,0-0.032,0.006c-3.578-0.256-7.315,0.67-9.408,3.445
		c-0.084,3.428-0.752,6.825-0.488,10.283l6.852-1.221c-0.262-3.428,0.203-6.795,0.582-10.25
		C20.362,64.979,20.372,64.942,20.382,64.901z"/>
	<polygon fill="#FFFFFF" stroke="#010101" stroke-width="0.25" points="57.732,19.352 70.315,13.763 82.415,20.343 82.546,22.564 
		86.31,20.145 86.55,17.439 75.026,10.904 	"/>
	<path fill="#FFFFFF" stroke="#010101" stroke-width="0.25" d="M184.232,51.731c0,4.244,0,8.486,0,12.724
		c0,0.781-0.646,1.474-1.477,1.474c-0.828,0-1.475-0.692-1.475-1.474c0-4.237,0-8.479,0-12.724c0-0.823,0.646-1.471,1.475-1.471
		C183.587,50.261,184.232,50.908,184.232,51.731L184.232,51.731z"/>
	<path fill="#FFFFFF" stroke="#010101" stroke-width="0.25" d="M179.073,51.673c0,4.239,0,8.477,0,12.723
		c0,0.779-0.646,1.476-1.478,1.476c-0.83,0-1.479-0.696-1.479-1.476c0-4.246,0-8.483,0-12.723c0-0.832,0.651-1.475,1.479-1.475
		S179.073,50.841,179.073,51.673L179.073,51.673z"/>
	<path fill="#FFFFFF" stroke="#010101" stroke-width="0.25" d="M173.665,51.704c0,4.238,0,8.48,0,12.721
		c0,0.781-0.647,1.475-1.479,1.475c-0.83,0-1.475-0.693-1.475-1.475c0-4.24,0-8.481,0-12.721c0-0.833,0.645-1.472,1.475-1.472
		S173.665,50.871,173.665,51.704L173.665,51.704z"/>
	<polygon fill="#FFFFFF" stroke="#010101" stroke-width="0.25" points="189.559,107.204 189.579,48.24 188.021,43.323 
		186.456,48.24 186.477,107.193 	"/>
	<polygon fill="#FFFFFF" stroke="#010101" stroke-width="0.25" points="168.618,107.202 168.618,48.24 167.632,43.568 
		166.646,48.24 166.648,107.204 	"/>
	<polygon fill="#FFFFFF" stroke="#010101" stroke-width="0.25" points="185.134,47.349 177.359,28.454 170.973,42.71 
		170.973,41.481 177.73,24.366 185.872,43.909 	"/>
	<path fill="#FFFFFF" stroke="#010101" stroke-width="0.25" d="M16.989,39.111c0,0,21.959-13.062,42.549-14.792
		c0,0,29.248-5.292,58.754,9.715c0,0,17.06,7.893,27.708,20.145h10.266v55.426l-3.979,0.016v-51.85h-9.365
		c0,0-19.58-20.214-47.339-27.71C55.69,19.287,18.311,38.414,16.989,39.111z"/>
	<g>
		<g>
			<g>
				<path fill="#FFFFFF" stroke="#010101" stroke-width="0.25" d="M11.958,138.462v-20.129h5.795c6.522,0,8.179,2.276,8.179,5.537
					c0,1.89-0.907,3.259-2.537,4.164c1.836,0.881,2.926,2.614,2.926,4.633c0,3.469-2.821,5.795-6.497,5.795H11.958z M15.995,126.509
					c2.978,0,5.795,0.336,5.795-2.434c0-2.873-2.949-2.562-5.795-2.562V126.509z M18.608,135.28c1.215,0,3.569,0.155,3.569-2.898
					c0-2.739-2.274-3.104-6.183-2.817v5.719L18.608,135.28L18.608,135.28z"/>
				<path fill="#FFFFFF" stroke="#010101" stroke-width="0.25" d="M40.192,121.749h-8.486v4.812h7.037v3.414h-7.037v5.068h8.979
					v3.416H27.671v-20.127h12.521V121.749L40.192,121.749z"/>
				<path fill="#FFFFFF" stroke="#010101" stroke-width="0.25" d="M50.106,118.333c4.633,0,6.441,3.312,6.441,5.873
					c0,2.199-1.371,4.244-3.414,5.069l4.01,9.187H52.9l-3.623-8.354H46.2v8.354h-4.037v-20.129H50.106z M47.958,126.689
					c1.761,0,4.449,0.104,4.449-2.405c0-2.771-2.716-2.535-4.709-2.535h-1.5v4.94H47.958z"/>
				<path fill="#FFFFFF" stroke="#010101" stroke-width="0.25" d="M68.895,118.333h4.658l-6.003,7.864l6.753,12.265h-4.604
					l-4.863-8.719l-2.099,2.666v6.053H58.7v-20.129h4.036v8.409L68.895,118.333z"/>
				<path fill="#FFFFFF" stroke="#010101" stroke-width="0.25" d="M87.919,121.749h-8.486v4.812h7.035v3.414h-7.035v5.068h8.977
					v3.416H75.396v-20.127h12.523V121.749z"/>
				<path fill="#FFFFFF" stroke="#010101" stroke-width="0.25" d="M94.444,135.046h8.382v3.416H90.409v-20.129h4.036L94.444,135.046
					L94.444,135.046z"/>
				<path fill="#FFFFFF" stroke="#010101" stroke-width="0.25" d="M117.348,121.749h-8.488v4.812h7.039v3.414h-7.039v5.068h8.979
					v3.416H104.82v-20.127h12.523L117.348,121.749L117.348,121.749z"/>
				<path fill="#FFFFFF" stroke="#010101" stroke-width="0.25" d="M129.383,130.338v8.124h-4.037v-8.124l-6.602-12.005h4.3
					l4.347,8.851l4.502-8.851h4.164L129.383,130.338z"/>
				<path fill="#FFFFFF" stroke="#010101" stroke-width="0.25" d="M149.337,135.046h8.386v3.416h-12.421v-20.129h4.035V135.046z"/>
				<path fill="#FFFFFF" stroke="#010101" stroke-width="0.25" d="M175.968,138.462h-4.114l-1.318-5.046h-5.951l-1.318,5.046h-4.113
					l5.642-20.129h5.435L175.968,138.462z M167.609,121.8h-0.104l-2.123,8.435h4.348L167.609,121.8z"/>
				<path fill="#FFFFFF" stroke="#010101" stroke-width="0.25" d="M177.68,138.462v-20.129h5.795c6.522,0,8.18,2.276,8.18,5.537
					c0,1.89-0.908,3.259-2.537,4.164c1.838,0.881,2.926,2.614,2.926,4.633c0,3.469-2.822,5.795-6.494,5.795H177.68z
					 M181.718,126.509c2.976,0,5.798,0.336,5.798-2.434c0-2.873-2.951-2.562-5.798-2.562V126.509z M184.331,135.28
					c1.215,0,3.565,0.155,3.565-2.898c0-2.739-2.276-3.104-6.182-2.817v5.719L184.331,135.28L184.331,135.28z"/>
			</g>
		</g>
		<g>
			<g>
				<path fill="#FFFFFF" stroke="#010101" stroke-width="0.25" d="M14.866,150.35h3.112v1.269h-4.612v-7.476h1.5V150.35z"/>
				<path fill="#FFFFFF" stroke="#010101" stroke-width="0.25" d="M21.796,151.127c-0.528,0.374-0.844,0.605-1.526,0.605
					c-0.935,0-1.69-0.635-1.69-1.596c0-1.521,1.998-1.824,3.143-1.949c0.096-0.75-0.153-1.021-0.682-1.021
					c-0.453,0-0.779,0.202-0.854,0.672l-1.367-0.211c0.317-1.144,1.087-1.509,2.209-1.509c1.452,0,2.116,0.691,2.116,1.699v2.673
					c0,0.384,0.018,0.771,0.189,1.124H21.95L21.796,151.127z M21.721,149.157c-0.586,0.106-1.748,0.163-1.748,0.95
					c0,0.316,0.151,0.576,0.489,0.576c0.584,0,0.99-0.348,1.259-0.701V149.157z"/>
				<path fill="#FFFFFF" stroke="#010101" stroke-width="0.25" d="M28.989,151.617h-1.337l-0.635-3.604h-0.021l-0.65,3.604H25.01
					l-1.296-5.381h1.296l0.653,3.562h0.021l0.681-3.562h1.434l0.596,3.562h0.018l0.73-3.562h1.22L28.989,151.617z"/>
				<path fill="#FFFFFF" stroke="#010101" stroke-width="0.25" d="M32.31,147.178c0.547-0.646,0.988-1.059,1.641-1.059h0.271v1.423
					c-0.134-0.026-0.271-0.058-0.413-0.058c-0.365,0-1.497,0.334-1.497,1.767v2.364h-1.423v-5.381h1.423L32.31,147.178
					L32.31,147.178z"/>
				<path fill="#FFFFFF" stroke="#010101" stroke-width="0.25" d="M35.991,149.264c-0.048,0.65,0.346,1.422,1.075,1.422
					c0.511,0,0.79-0.414,0.896-0.865l1.312,0.24c-0.306,1.064-1.333,1.674-2.352,1.674c-1.566,0-2.364-1.385-2.364-2.808
					c0-1.433,0.789-2.808,2.364-2.808c1.354,0,2.392,0.646,2.352,3.145H35.991z M37.884,148.37c0-0.604-0.242-1.201-0.922-1.201
					c-0.646,0-0.902,0.625-0.922,1.201H37.884z"/>
				<path fill="#FFFFFF" stroke="#010101" stroke-width="0.25" d="M41.577,146.794c0.45-0.374,1.01-0.673,1.604-0.673
					c0.586,0,1.411,0.355,1.411,1.684v3.812h-1.419v-3.239c0-0.431,0.027-1.11-0.588-1.11c-0.412,0-0.737,0.297-1.01,0.586v3.767
					h-1.421v-5.38h1.421L41.577,146.794L41.577,146.794z"/>
				<path fill="#FFFFFF" stroke="#010101" stroke-width="0.25" d="M50.083,149.878c-0.229,1.125-1.047,1.854-2.248,1.854
					c-1.564,0-2.364-1.383-2.364-2.807c0-1.433,0.789-2.808,2.364-2.808c1.201,0,2.019,0.729,2.248,1.854l-1.287,0.223
					c-0.104-0.512-0.24-1.029-0.961-1.029c-0.768,0-0.903,1.085-0.903,1.76c0,0.674,0.137,1.758,0.903,1.758
					c0.721,0,0.855-0.52,0.961-1.037L50.083,149.878z"/>
				<path fill="#FFFFFF" stroke="#010101" stroke-width="0.25" d="M52.269,149.264c-0.047,0.65,0.348,1.422,1.075,1.422
					c0.51,0,0.789-0.414,0.896-0.865l1.315,0.24c-0.31,1.064-1.336,1.674-2.354,1.674c-1.564,0-2.361-1.385-2.361-2.808
					c0-1.433,0.785-2.808,2.361-2.808c1.354,0,2.394,0.646,2.354,3.145H52.269z M54.161,148.37c0-0.604-0.238-1.201-0.922-1.201
					c-0.645,0-0.902,0.625-0.923,1.201H54.161z"/>
				<path fill="#FFFFFF" stroke="#010101" stroke-width="0.25" d="M59.442,151.617v-7.475h2.151c2.422,0,3.036,0.844,3.036,2.058
					c0,0.698-0.336,1.21-0.942,1.545c0.681,0.325,1.086,0.973,1.086,1.723c0,1.284-1.045,2.149-2.411,2.149H59.442L59.442,151.617z
					 M60.941,147.178c1.104,0,2.152,0.125,2.152-0.902c0-1.065-1.097-0.951-2.152-0.951V147.178z M61.911,150.438
					c0.45,0,1.326,0.057,1.326-1.078c0-1.021-0.846-1.152-2.296-1.047v2.125H61.911z"/>
				<path fill="#FFFFFF" stroke="#010101" stroke-width="0.25" d="M66.948,149.264c-0.048,0.65,0.348,1.422,1.077,1.422
					c0.509,0,0.789-0.414,0.896-0.865l1.313,0.24c-0.308,1.064-1.335,1.674-2.353,1.674c-1.565,0-2.364-1.385-2.364-2.808
					c0-1.433,0.788-2.808,2.364-2.808c1.354,0,2.393,0.646,2.353,3.145H66.948z M68.843,148.37c0-0.604-0.24-1.201-0.922-1.201
					c-0.646,0-0.902,0.625-0.922,1.201H68.843z"/>
				<path fill="#FFFFFF" stroke="#010101" stroke-width="0.25" d="M72.556,147.178c0.547-0.646,0.99-1.059,1.641-1.059h0.27v1.423
					c-0.135-0.026-0.27-0.058-0.411-0.058c-0.365,0-1.498,0.334-1.498,1.767v2.364h-1.425v-5.381h1.425L72.556,147.178
					L72.556,147.178z"/>
				<path fill="#FFFFFF" stroke="#010101" stroke-width="0.25" d="M76.563,148.254l1.499-2.018h1.634l-1.662,2.018l1.825,3.363
					h-1.595l-1.182-2.21l-0.521,0.635v1.575H75.14v-7.475h1.421L76.563,148.254L76.563,148.254z"/>
				<path fill="#FFFFFF" stroke="#010101" stroke-width="0.25" d="M81.774,149.264c-0.046,0.65,0.348,1.422,1.078,1.422
					c0.509,0,0.787-0.414,0.895-0.865l1.314,0.24c-0.309,1.064-1.336,1.674-2.354,1.674c-1.565,0-2.364-1.385-2.364-2.808
					c0-1.433,0.788-2.808,2.364-2.808c1.354,0,2.392,0.646,2.354,3.145H81.774z M83.667,148.37c0-0.604-0.237-1.201-0.922-1.201
					c-0.644,0-0.902,0.625-0.922,1.201H83.667z"/>
				<path fill="#FFFFFF" stroke="#010101" stroke-width="0.25" d="M87.39,151.617h-1.419v-7.475h1.419V151.617z"/>
				<path fill="#FFFFFF" stroke="#010101" stroke-width="0.25" d="M89.717,149.264c-0.048,0.65,0.348,1.422,1.077,1.422
					c0.51,0,0.787-0.414,0.895-0.865l1.312,0.24c-0.309,1.064-1.334,1.674-2.354,1.674c-1.564,0-2.363-1.385-2.363-2.808
					c0-1.433,0.789-2.808,2.363-2.808c1.357,0,2.393,0.646,2.354,3.145H89.717z M91.611,148.37c0-0.604-0.241-1.201-0.923-1.201
					c-0.646,0-0.904,0.625-0.924,1.201H91.611z"/>
				<path fill="#FFFFFF" stroke="#010101" stroke-width="0.25" d="M96.378,152.05c-0.346,0.979-0.689,1.546-1.823,1.546
					c-0.308,0-0.615-0.037-0.912-0.104v-1.22c0.211,0.076,0.383,0.135,0.612,0.135c0.645,0,0.875-0.365,1.048-0.924l-1.919-5.243
					h1.533l1.088,3.545l0.99-3.545h1.459L96.378,152.05z"/>
				<path fill="#FFFFFF" stroke="#010101" stroke-width="0.25" d="M104.16,144.143l2.236,4.928h0.021v-4.928h1.492v7.476h-1.602
					l-2.826-6.004h-0.018v6.004h-1.499v-7.476H104.16z"/>
				<path fill="#FFFFFF" stroke="#010101" stroke-width="0.25" d="M112.031,151.127c-0.524,0.374-0.846,0.605-1.525,0.605
					c-0.933,0-1.691-0.635-1.691-1.596c0-1.521,2-1.824,3.145-1.949c0.098-0.75-0.152-1.021-0.688-1.021
					c-0.448,0-0.773,0.202-0.852,0.672l-1.363-0.211c0.312-1.144,1.084-1.509,2.207-1.509c1.451,0,2.113,0.691,2.113,1.699v2.673
					c0,0.384,0.02,0.771,0.193,1.124h-1.385L112.031,151.127z M111.954,149.157c-0.585,0.106-1.745,0.163-1.745,0.95
					c0,0.316,0.148,0.576,0.486,0.576c0.587,0,0.99-0.348,1.259-0.701V149.157z"/>
				<path fill="#FFFFFF" stroke="#010101" stroke-width="0.25" d="M116.032,146.236h1.106v1.183h-1.106v2.738
					c0,0.258,0.079,0.526,0.538,0.526c0.238,0,0.396-0.097,0.568-0.201v1.086c-0.298,0.087-0.606,0.164-0.914,0.164
					c-0.887,0-1.615-0.5-1.615-1.672v-2.645h-0.664v-1.182h0.664v-1.346h1.423V146.236z"/>
				<path fill="#FFFFFF" stroke="#010101" stroke-width="0.25" d="M119.09,145.45h-1.422v-1.308h1.422V145.45z M119.09,151.617
					h-1.422v-5.381h1.422V151.617z"/>
				<path fill="#FFFFFF" stroke="#010101" stroke-width="0.25" d="M119.986,148.927c0-1.433,0.787-2.808,2.365-2.808
					c1.571,0,2.361,1.375,2.361,2.808c0,1.423-0.802,2.808-2.361,2.808C120.783,151.732,119.986,150.35,119.986,148.927z
					 M123.253,148.927c0-0.675-0.138-1.76-0.901-1.76c-0.771,0-0.903,1.085-0.903,1.76c0,0.673,0.136,1.759,0.903,1.759
					C123.117,150.686,123.253,149.6,123.253,148.927z"/>
				<path fill="#FFFFFF" stroke="#010101" stroke-width="0.25" d="M127.014,146.794c0.451-0.374,1.008-0.673,1.604-0.673
					c0.586,0,1.412,0.355,1.412,1.684v3.812h-1.422v-3.239c0-0.431,0.026-1.11-0.588-1.11c-0.414,0-0.74,0.297-1.008,0.586v3.767
					h-1.422v-5.38h1.422L127.014,146.794L127.014,146.794z"/>
				<path fill="#FFFFFF" stroke="#010101" stroke-width="0.25" d="M134.126,151.127c-0.526,0.374-0.847,0.605-1.528,0.605
					c-0.931,0-1.688-0.635-1.688-1.596c0-1.521,1.997-1.824,3.141-1.949c0.096-0.75-0.152-1.021-0.683-1.021
					c-0.449,0-0.776,0.202-0.854,0.672l-1.363-0.211c0.318-1.144,1.089-1.509,2.211-1.509c1.453,0,2.113,0.691,2.113,1.699v2.673
					c0,0.384,0.018,0.771,0.188,1.124h-1.386L134.126,151.127z M134.048,149.157c-0.584,0.106-1.747,0.163-1.747,0.95
					c0,0.316,0.154,0.576,0.491,0.576c0.586,0,0.987-0.348,1.256-0.701V149.157z"/>
				<path fill="#FFFFFF" stroke="#010101" stroke-width="0.25" d="M137.993,151.617h-1.423v-7.475h1.423V151.617z"/>
				<path fill="#FFFFFF" stroke="#010101" stroke-width="0.25" d="M143.521,150.35h3.108v1.269h-4.606v-7.476h1.498V150.35z"/>
				<path fill="#FFFFFF" stroke="#010101" stroke-width="0.25" d="M150.452,151.127c-0.522,0.374-0.845,0.605-1.525,0.605
					c-0.932,0-1.69-0.635-1.69-1.596c0-1.521,1.998-1.824,3.145-1.949c0.096-0.75-0.154-1.021-0.684-1.021
					c-0.451,0-0.777,0.202-0.855,0.672l-1.361-0.211c0.314-1.144,1.084-1.509,2.207-1.509c1.453,0,2.113,0.691,2.113,1.699v2.673
					c0,0.384,0.021,0.771,0.191,1.124h-1.383L150.452,151.127z M150.376,149.157c-0.59,0.106-1.748,0.163-1.748,0.95
					c0,0.316,0.149,0.576,0.485,0.576c0.587,0,0.99-0.348,1.263-0.701V149.157L150.376,149.157z"/>
				<path fill="#FFFFFF" stroke="#010101" stroke-width="0.25" d="M152.889,144.143h1.422v2.623
					c0.401-0.355,0.748-0.646,1.326-0.646c0.772,0,1.969,0.686,1.969,2.672c0,2.27-1,2.939-2.084,2.939
					c-0.595,0-0.935-0.186-1.365-0.566l-0.125,0.451h-1.143V144.143L152.889,144.143z M154.311,150.051
					c0.221,0.338,0.498,0.635,0.922,0.635c0.854,0,0.979-1.06,0.979-1.701c0-0.594-0.162-1.596-0.951-1.596
					c-0.413,0-0.7,0.29-0.95,0.588V150.051L154.311,150.051z"/>
				<path fill="#FFFFFF" stroke="#010101" stroke-width="0.25" d="M158.357,148.927c0-1.433,0.789-2.808,2.363-2.808
					c1.576,0,2.365,1.375,2.365,2.808c0,1.423-0.801,2.808-2.365,2.808C159.157,151.734,158.357,150.35,158.357,148.927z
					 M161.626,148.927c0-0.675-0.14-1.76-0.903-1.76c-0.77,0-0.9,1.085-0.9,1.76c0,0.673,0.133,1.759,0.9,1.759
					C161.488,150.686,161.626,149.6,161.626,148.927z"/>
				<path fill="#FFFFFF" stroke="#010101" stroke-width="0.25" d="M165.404,147.178c0.55-0.646,0.988-1.059,1.646-1.059h0.271v1.423
					c-0.135-0.026-0.271-0.058-0.414-0.058c-0.361,0-1.498,0.334-1.498,1.767v2.364h-1.422v-5.381h1.422L165.404,147.178
					L165.404,147.178z"/>
				<path fill="#FFFFFF" stroke="#010101" stroke-width="0.25" d="M171.064,151.127c-0.521,0.374-0.844,0.605-1.521,0.605
					c-0.935,0-1.694-0.635-1.694-1.596c0-1.521,2-1.824,3.143-1.949c0.1-0.75-0.15-1.021-0.682-1.021
					c-0.449,0-0.777,0.202-0.854,0.672l-1.36-0.211c0.312-1.144,1.081-1.509,2.209-1.509c1.45,0,2.108,0.691,2.108,1.699v2.673
					c0,0.384,0.021,0.771,0.192,1.124h-1.385L171.064,151.127z M170.988,149.157c-0.586,0.106-1.747,0.163-1.747,0.95
					c0,0.316,0.153,0.576,0.491,0.576c0.584,0,0.986-0.348,1.256-0.701V149.157L170.988,149.157z"/>
				<path fill="#FFFFFF" stroke="#010101" stroke-width="0.25" d="M175.068,146.236h1.105v1.183h-1.105v2.738
					c0,0.258,0.076,0.526,0.537,0.526c0.24,0,0.396-0.097,0.568-0.201v1.086c-0.299,0.087-0.607,0.164-0.912,0.164
					c-0.885,0-1.617-0.5-1.617-1.672v-2.645h-0.662v-1.182h0.662v-1.346h1.424V146.236L175.068,146.236z"/>
				<path fill="#FFFFFF" stroke="#010101" stroke-width="0.25" d="M176.55,148.927c0-1.433,0.787-2.808,2.365-2.808
					c1.571,0,2.358,1.375,2.358,2.808c0,1.423-0.795,2.808-2.358,2.808C177.35,151.732,176.55,150.35,176.55,148.927z
					 M179.814,148.927c0-0.675-0.133-1.76-0.897-1.76c-0.771,0-0.905,1.085-0.905,1.76c0,0.673,0.137,1.759,0.905,1.759
					C179.684,150.686,179.814,149.6,179.814,148.927z"/>
				<path fill="#FFFFFF" stroke="#010101" stroke-width="0.25" d="M183.6,147.178c0.545-0.646,0.987-1.059,1.643-1.059h0.27v1.423
					c-0.133-0.026-0.27-0.058-0.414-0.058c-0.363,0-1.496,0.334-1.496,1.767v2.364h-1.426v-5.381h1.426L183.6,147.178L183.6,147.178
					z"/>
				<path fill="#FFFFFF" stroke="#010101" stroke-width="0.25" d="M188.663,152.05c-0.345,0.979-0.688,1.546-1.822,1.546
					c-0.312,0-0.614-0.037-0.914-0.104v-1.22c0.212,0.076,0.386,0.135,0.617,0.135c0.642,0,0.872-0.365,1.043-0.924l-1.918-5.243
					h1.533l1.086,3.545l0.989-3.545h1.459L188.663,152.05z"/>
			</g>
		</g>
	</g>
</g>
</svg>
